<?xml version="1.0" standalone="no"?>
<!DOCTYPE svg PUBLIC "-//W3C//DTD SVG 20010904//EN"
 "http://www.w3.org/TR/2001/REC-SVG-20010904/DTD/svg10.dtd">
<svg version="1.0" xmlns="http://www.w3.org/2000/svg"
 width="1904.000000pt" height="177.000000pt" viewBox="0 0 1904.000000 177.000000"
 preserveAspectRatio="xMidYMid meet">

<g transform="translate(0.000000,177.000000) scale(0.100000,-0.100000)"
fill="#000000" stroke="none">
<path d="M4700 1623 c0 -16 11 -39 28 -56 l27 -28 0 -341 0 -340 -27 -23 c-30
-26 -39 -75 -14 -75 8 0 16 -7 20 -15 5 -13 58 -15 399 -15 292 0 396 3 405
12 13 13 15 64 6 157 l-7 61 -33 0 c-23 0 -37 -6 -44 -21 -6 -11 -26 -29 -43
-39 -29 -18 -52 -20 -224 -20 l-193 0 0 124 c0 100 3 128 16 140 12 13 41 16
152 16 131 0 139 -1 175 -26 60 -40 71 -32 75 56 2 41 0 99 -3 128 -6 48 -9
52 -33 52 -14 0 -36 -10 -48 -21 -13 -12 -42 -25 -66 -30 -51 -10 -193 -12
-237 -3 l-31 7 0 68 c0 106 6 109 183 109 173 -1 206 -8 258 -55 58 -52 73
-45 77 35 2 36 0 89 -3 118 l-6 52 -405 0 -404 0 0 -27z"/>
<path d="M5600 1623 c0 -16 11 -39 28 -56 l27 -28 0 -341 0 -340 -27 -23 c-30
-26 -39 -75 -14 -75 8 0 16 -7 20 -15 5 -13 53 -15 349 -15 253 0 346 3 355
12 13 13 15 83 6 166 -6 50 -8 52 -36 52 -20 0 -37 -8 -50 -25 -37 -48 -66
-55 -218 -55 l-140 0 0 295 c0 307 4 341 43 374 17 14 22 56 11 85 -5 14 -31
16 -180 16 l-174 0 0 -27z"/>
<path d="M6390 1623 c0 -16 11 -39 28 -56 l27 -28 0 -341 0 -340 -27 -23 c-15
-13 -30 -35 -34 -49 -5 -21 -3 -26 14 -26 11 0 22 -7 26 -15 5 -13 58 -15 399
-15 292 0 396 3 405 12 13 13 15 64 6 157 -7 60 -7 61 -37 61 -22 0 -38 -10
-62 -37 l-33 -38 -206 -3 -206 -3 0 124 c0 85 4 129 13 141 11 16 28 17 157
14 133 -3 148 -5 178 -26 55 -40 67 -29 70 68 2 47 0 104 -3 128 -6 37 -9 42
-32 42 -15 0 -37 -10 -49 -21 -13 -12 -42 -25 -66 -30 -51 -10 -193 -12 -237
-3 l-31 7 0 68 c0 106 6 109 183 109 173 -1 206 -8 258 -55 58 -52 73 -45 77
35 2 36 0 89 -3 118 l-6 52 -405 0 -404 0 0 -27z"/>
<path d="M7270 1624 c0 -16 13 -41 33 -63 26 -29 58 -107 166 -411 105 -292
140 -380 160 -397 23 -19 38 -22 117 -23 66 0 95 4 103 14 6 7 72 181 145 386
111 307 140 378 166 405 29 30 31 37 25 74 l-7 41 -134 0 -134 0 0 -28 c0 -16
9 -37 20 -47 11 -10 22 -26 26 -37 6 -20 -162 -518 -175 -518 -9 0 -171 450
-171 475 0 11 8 32 18 47 12 18 16 40 14 67 l-4 41 -184 0 -184 0 0 -26z"/>
<path d="M8527 1608 c-9 -24 -73 -200 -142 -393 -104 -291 -130 -355 -155
-377 -32 -29 -42 -78 -15 -78 7 0 18 -7 23 -15 7 -13 28 -15 118 -13 l109 3 3
38 c3 30 -2 42 -20 56 l-23 19 25 73 c37 109 37 109 189 109 l129 0 32 -80
c31 -76 31 -81 16 -105 -9 -14 -20 -25 -25 -25 -5 0 -11 -14 -13 -30 -4 -23
-1 -30 13 -30 9 0 19 -7 23 -15 5 -13 29 -15 163 -13 l158 3 3 42 c2 33 -1 43
-15 47 -10 4 -25 17 -34 29 -9 12 -73 175 -143 362 -70 187 -137 361 -148 388
l-20 47 -118 0 -117 0 -16 -42z m141 -305 c51 -136 55 -123 -32 -123 -41 0
-77 4 -80 9 -5 7 45 159 60 183 12 19 24 3 52 -69z"/>
<path d="M9150 1549 c0 -92 2 -102 23 -120 31 -26 38 -24 77 16 39 41 82 55
163 55 l57 0 0 -316 0 -316 -30 -30 c-31 -31 -41 -78 -16 -78 8 0 16 -7 20
-15 5 -13 29 -15 163 -13 l158 3 3 36 c2 30 -3 42 -28 67 l-31 31 3 301 c3
345 -1 330 92 330 75 0 117 -15 155 -55 54 -57 65 -46 69 65 2 52 0 105 -3
118 l-5 22 -435 0 -435 0 0 -101z"/>
<path d="M10078 1628 c-3 -15 6 -34 26 -56 l31 -33 0 -340 0 -341 -27 -23
c-30 -26 -39 -75 -14 -75 8 0 16 -7 20 -15 5 -13 58 -15 399 -15 292 0 396 3
405 12 13 13 15 83 6 166 -7 51 -7 52 -40 52 -23 0 -37 -6 -44 -21 -6 -11 -26
-29 -43 -39 -29 -18 -52 -20 -224 -20 l-193 0 0 124 c0 165 -8 158 174 154
129 -3 144 -5 174 -26 54 -39 67 -29 70 58 2 41 0 99 -3 128 -6 48 -9 52 -33
52 -14 0 -36 -10 -48 -21 -13 -12 -42 -25 -66 -30 -51 -10 -193 -12 -237 -3
l-31 7 0 68 c0 106 6 109 183 109 173 -1 206 -8 258 -55 58 -52 73 -45 77 35
2 36 0 89 -3 118 l-6 52 -404 0 -404 0 -3 -22z"/>
<path d="M8159 539 c-29 -29 -66 -115 -73 -169 -5 -38 -4 -41 5 -20 50 113 66
143 86 162 24 22 31 48 13 48 -5 0 -19 -9 -31 -21z"/>
<path d="M8446 553 c-3 -3 -5 -88 -4 -187 l2 -181 6 165 c3 91 9 172 13 181 8
17 -5 34 -17 22z"/>
<path d="M9131 520 l1 -45 10 34 c6 23 6 37 -1 44 -8 8 -11 -2 -10 -33z"/>
<path d="M9667 553 c-4 -3 -6 -88 -5 -187 l2 -181 6 185 c3 102 5 186 5 188
-1 1 -5 -1 -8 -5z"/>
<path d="M12571 515 l1 -50 9 39 c6 26 6 43 -1 50 -7 7 -10 -6 -9 -39z"/>
<path d="M13039 539 c-29 -29 -66 -115 -73 -169 -5 -38 -4 -41 5 -20 50 113
66 143 86 162 24 22 31 48 13 48 -5 0 -19 -9 -31 -21z"/>
<path d="M13326 553 c-3 -3 -5 -88 -4 -187 l2 -181 6 165 c3 91 9 172 13 181
8 17 -5 34 -17 22z"/>
<path d="M14031 515 l1 -50 9 39 c6 26 6 43 -1 50 -7 7 -10 -6 -9 -39z"/>
<path d="M15147 553 c-4 -3 -6 -88 -5 -187 l2 -181 6 185 c3 102 5 186 5 188
-1 1 -5 -1 -8 -5z"/>
<path d="M8673 536 c-33 -15 -45 -48 -23 -61 6 -3 10 -1 10 5 0 5 16 18 35 27
29 14 43 15 76 6 41 -11 41 -11 22 8 -26 26 -80 33 -120 15z"/>
<path d="M10373 536 c-33 -15 -45 -48 -23 -61 6 -3 10 -1 10 5 0 5 16 18 35
27 29 14 43 15 76 6 41 -11 41 -11 22 8 -26 26 -80 33 -120 15z"/>
<path d="M10833 536 c-33 -15 -45 -48 -23 -61 6 -3 10 -1 10 5 0 5 16 18 35
27 29 14 43 15 76 6 41 -11 41 -11 22 8 -26 26 -80 33 -120 15z"/>
<path d="M11543 536 c-33 -15 -45 -48 -23 -61 6 -3 10 -1 10 5 0 5 16 18 35
27 29 14 43 15 76 6 41 -11 41 -11 22 8 -26 26 -80 33 -120 15z"/>
<path d="M12060 539 c-55 -22 -85 -67 -94 -144 l-6 -50 15 39 c45 118 126 164
209 121 26 -14 28 -14 15 1 -16 20 -71 44 -96 43 -10 0 -29 -5 -43 -10z"/>
<path d="M14310 532 c-45 -22 -76 -69 -85 -128 -7 -51 0 -72 11 -28 26 112
124 173 208 129 26 -14 28 -14 15 1 -16 20 -70 44 -96 44 -10 0 -34 -8 -53
-18z"/>
<path d="M15363 536 c-33 -15 -45 -48 -23 -61 6 -3 10 -1 10 5 0 5 16 18 35
27 29 14 43 15 76 6 41 -11 41 -11 22 8 -26 26 -80 33 -120 15z"/>
<path d="M7631 498 c1 -34 2 -38 8 -19 8 30 46 42 96 31 40 -9 41 -8 19 14
-10 11 -34 16 -70 16 l-54 0 1 -42z"/>
<path d="M9881 498 c1 -35 2 -38 8 -18 9 33 78 48 162 34 32 -6 59 -9 59 -8 0
2 -7 10 -16 18 -12 12 -38 16 -115 16 l-99 0 1 -42z"/>
<path d="M13426 524 c-15 -15 -22 -44 -11 -44 3 0 16 7 29 15 13 9 40 16 60
17 23 1 36 6 36 15 0 19 -94 18 -114 -3z"/>
<path d="M13672 363 l2 -178 6 155 c5 150 6 155 29 166 13 7 40 10 60 6 33 -5
35 -4 22 11 -9 12 -29 17 -67 17 l-54 0 2 -177z"/>
<path d="M8878 473 c-31 -32 -35 -43 -15 -43 20 0 49 36 45 55 -2 13 -8 11
-30 -12z"/>
<path d="M10578 473 c-31 -32 -35 -43 -15 -43 20 0 49 36 45 55 -2 13 -8 11
-30 -12z"/>
<path d="M11038 473 c-31 -32 -35 -43 -15 -43 20 0 49 36 45 55 -2 13 -8 11
-30 -12z"/>
<path d="M11748 473 c-31 -32 -35 -43 -15 -43 20 0 49 36 45 55 -2 13 -8 11
-30 -12z"/>
<path d="M15568 473 c-31 -32 -35 -43 -15 -43 20 0 49 36 45 55 -2 13 -8 11
-30 -12z"/>
<path d="M9311 444 c1 -27 4 -39 6 -27 2 12 13 23 25 25 19 3 19 4 -6 27 l-26
24 1 -49z"/>
<path d="M14791 444 c1 -27 4 -39 6 -27 2 12 13 23 25 25 19 3 19 4 -6 27
l-26 24 1 -49z"/>
<path d="M7902 445 c-6 -14 -25 -33 -42 -44 -31 -18 -31 -19 -8 -25 28 -7 68
33 68 70 0 30 -4 30 -18 -1z"/>
<path d="M10100 360 c0 -34 -21 -40 -46 -15 -11 11 -38 15 -95 15 l-79 0 1
-42 c1 -24 4 -33 6 -21 6 31 37 37 139 30 l84 -6 0 34 c0 19 -2 35 -5 35 -3 0
-5 -13 -5 -30z"/>
<path d="M12378 332 c-18 -123 -167 -225 -302 -207 -28 3 -70 15 -94 25 -60
27 -41 3 22 -26 71 -33 171 -33 241 0 91 42 151 135 143 219 -3 30 -4 29 -10
-11z"/>
<path d="M14638 332 c-18 -123 -167 -225 -302 -207 -28 3 -70 15 -94 25 -60
27 -41 3 22 -26 71 -33 171 -33 241 0 91 42 151 135 143 219 -3 30 -4 29 -10
-11z"/>
<path d="M7631 310 c1 -25 4 -35 6 -22 7 35 44 48 104 36 46 -10 48 -10 33 7
-11 12 -35 18 -80 21 l-64 3 1 -45z"/>
<path d="M8609 339 c13 -11 55 -29 95 -40 39 -12 82 -28 96 -36 l25 -15 -21
22 c-12 12 -66 37 -120 55 -79 27 -94 29 -75 14z"/>
<path d="M10303 342 c9 -8 59 -30 113 -48 68 -23 93 -29 82 -18 -9 9 -59 31
-113 49 -61 20 -91 27 -82 17z"/>
<path d="M10768 340 c12 -10 60 -31 105 -45 45 -15 89 -32 97 -38 8 -6 5 0 -6
12 -13 14 -63 37 -120 56 -76 26 -94 29 -76 15z"/>
<path d="M11479 339 c13 -11 55 -29 95 -40 39 -12 82 -28 96 -36 l25 -15 -21
22 c-12 12 -66 37 -120 55 -79 27 -94 29 -75 14z"/>
<path d="M15299 339 c13 -11 55 -29 95 -40 39 -12 82 -28 96 -36 l25 -15 -21
22 c-12 12 -66 37 -120 55 -79 27 -94 29 -75 14z"/>
<path d="M8940 245 c0 -26 -60 -83 -108 -102 -67 -26 -173 -24 -237 5 -59 26
-32 0 30 -29 54 -25 175 -25 230 0 52 23 95 74 95 112 0 16 -2 29 -5 29 -3 0
-5 -7 -5 -15z"/>
<path d="M10640 245 c0 -26 -60 -83 -108 -102 -66 -25 -172 -23 -237 5 -59 26
-33 1 30 -29 54 -25 175 -25 230 0 52 23 95 74 95 112 0 16 -2 29 -5 29 -3 0
-5 -7 -5 -15z"/>
<path d="M11100 245 c0 -26 -60 -83 -108 -102 -66 -25 -172 -23 -237 5 -59 26
-33 1 30 -29 54 -25 175 -25 230 0 52 23 95 74 95 112 0 16 -2 29 -5 29 -3 0
-5 -7 -5 -15z"/>
<path d="M11810 245 c0 -26 -60 -83 -108 -102 -66 -25 -172 -23 -235 5 -26 12
-45 16 -41 11 3 -6 30 -22 58 -35 66 -31 180 -33 241 -5 52 23 95 74 95 112 0
16 -2 29 -5 29 -3 0 -5 -7 -5 -15z"/>
<path d="M15630 245 c0 -26 -60 -83 -108 -102 -66 -25 -172 -23 -237 5 -59 26
-33 1 30 -29 54 -25 175 -25 230 0 52 23 95 74 95 112 0 16 -2 29 -5 29 -3 0
-5 -7 -5 -15z"/>
<path d="M7923 218 c-13 -23 -39 -44 -74 -61 -50 -25 -61 -27 -197 -27 -110 0
-143 -3 -139 -12 3 -10 43 -13 158 -13 146 0 156 1 199 25 29 16 51 38 63 63
25 49 17 70 -10 25z"/>
<path d="M8059 166 c6 -8 35 -24 64 -37 46 -21 68 -23 196 -24 100 0 145 4
148 11 3 9 -42 13 -159 16 -142 3 -169 7 -212 26 -30 13 -44 17 -37 8z"/>
<path d="M12939 166 c6 -8 35 -24 64 -37 46 -21 68 -23 196 -24 100 0 145 4
148 11 3 9 -42 13 -159 16 -142 3 -169 7 -212 26 -30 13 -44 17 -37 8z"/>
<path d="M9013 118 c2 -9 25 -13 67 -13 42 0 65 4 68 13 3 9 -15 12 -68 12
-53 0 -71 -3 -67 -12z"/>
<path d="M9233 118 c2 -8 21 -13 47 -13 26 0 45 5 48 13 2 8 -11 12 -48 12
-37 0 -50 -4 -47 -12z"/>
<path d="M9582 118 c3 -7 25 -14 51 -16 37 -2 47 0 47 12 0 12 -12 16 -51 16
-36 0 -49 -4 -47 -12z"/>
<path d="M9763 118 c3 -10 52 -13 202 -13 150 0 199 3 203 13 3 9 -42 12 -203
12 -161 0 -206 -3 -202 -12z"/>
<path d="M12453 118 c3 -10 47 -13 177 -13 130 0 174 3 178 13 3 9 -37 12
-178 12 -141 0 -181 -3 -177 -12z"/>
<path d="M13560 115 c0 -13 12 -15 67 -13 42 2 68 8 71 16 3 9 -15 12 -67 12
-57 0 -71 -3 -71 -15z"/>
<path d="M13913 118 c2 -9 25 -13 67 -13 42 0 65 4 68 13 3 9 -15 12 -68 12
-53 0 -71 -3 -67 -12z"/>
<path d="M14713 118 c2 -8 21 -13 47 -13 26 0 45 5 48 13 2 8 -11 12 -48 12
-37 0 -50 -4 -47 -12z"/>
<path d="M15062 118 c3 -7 25 -14 51 -16 37 -2 47 0 47 12 0 12 -12 16 -51 16
-36 0 -49 -4 -47 -12z"/>
</g>
</svg>
