<?xml version="1.0" standalone="no"?>
<svg viewBox="0 0 200 200" xmlns="http://www.w3.org/2000/svg">
  <path fill="#FF0066" d="M35,-56.6C46.8,-53.9,58.8,-47.4,68.6,-37.3C78.5,-27.2,86.3,-13.6,87.3,0.6C88.2,14.7,82.3,29.4,73.3,41C64.4,52.6,52.3,61.1,39.5,65.9C26.8,70.8,13.4,72,-1,73.7C-15.4,75.5,-30.8,77.7,-41.2,71.6C-51.7,65.4,-57.2,50.8,-66,37.5C-74.9,24.1,-87.2,12.1,-90.7,-2C-94.2,-16.2,-89.1,-32.3,-78.5,-42.6C-67.8,-52.9,-51.8,-57.3,-37.8,-58.8C-23.8,-60.2,-11.9,-58.6,-0.1,-58.4C11.6,-58.2,23.3,-59.3,35,-56.6Z" transform="translate(100 100)" />
</svg>
