<?xml version="1.0" encoding="UTF-8"?>
<svg version="1.1" xmlns="http://www.w3.org/2000/svg" width="512" height="512">
<path d="M0 0 C0.66 0 1.32 0 2 0 C2.33 37.95 2.66 75.9 3 115 C-4.53437344 111.23281328 -9.96700039 104.24429499 -15.296875 97.82421875 C-17.35108604 95.62395142 -19.61850807 93.83472083 -22 92 C-23.35491884 93.49932062 -24.70888678 94.99950054 -26.0625 96.5 C-26.89523437 97.42296875 -27.72796875 98.3459375 -28.5859375 99.296875 C-30.4858942 101.4243346 -32.34331942 103.57481265 -34.1875 105.75 C-43.29702345 116.13989426 -53.18076009 125.49978317 -64.28076172 133.72509766 C-65.94971322 134.9627098 -67.60177553 136.22053819 -69.25390625 137.48046875 C-99.46799779 160.15341839 -138.89745719 177.25217694 -177 179 C-177 178.34 -177 177.68 -177 177 C-176.39341553 176.81526123 -175.78683105 176.63052246 -175.16186523 176.44018555 C-139.97646071 165.58065574 -110.54432858 148.36059501 -84 123 C-83.27296875 122.32582031 -82.5459375 121.65164062 -81.796875 120.95703125 C-75.4676392 114.92367436 -70.26322412 107.95518601 -65 101 C-64.25105469 100.01128906 -63.50210938 99.02257812 -62.73046875 98.00390625 C-58.38220153 92.14247529 -54.80258973 86.33764955 -51 80 C-65.355 80.495 -65.355 80.495 -80 81 C-80 78 -80 78 -78.70703125 76.6328125 C-78.08183594 76.13523437 -77.45664063 75.63765625 -76.8125 75.125 C-72.94435475 71.88338532 -69.36211861 68.45537419 -65.8125 64.875 C-65.26158691 64.32070312 -64.71067383 63.76640625 -64.14306641 63.1953125 C-62.42665057 61.46556815 -60.7128958 59.73322978 -59 58 C-56.73221143 55.70529026 -54.46090292 53.41414624 -52.1875 51.125 C-51.68516846 50.61437012 -51.18283691 50.10374023 -50.6652832 49.57763672 C-47.89444777 46.78827785 -45.04856721 44.14326285 -42.07275391 41.57275391 C-38.0845955 38.11905307 -34.35265366 34.46489494 -30.6484375 30.7109375 C-29.98590973 30.04462311 -29.32338196 29.37830872 -28.64077759 28.69180298 C-26.54970419 26.58864762 -24.46193925 24.48225716 -22.375 22.375 C-19.61493084 19.58819586 -16.85146848 16.80482042 -14.0859375 14.0234375 C-13.15290298 13.07795547 -13.15290298 13.07795547 -12.20101929 12.1133728 C-9.43494654 9.33192751 -6.66228144 6.66480191 -3.61962891 4.18603516 C-0.96817223 2.26984248 -0.96817223 2.26984248 0 0 Z " fill="#C1262C" transform="translate(330,48)"/>
<path d="M0 0 C0.87078186 -0.00807175 1.74156372 -0.01614349 2.63873291 -0.02445984 C4.48472094 -0.03830382 6.3307346 -0.04902457 8.17675781 -0.05688477 C10.99073335 -0.07406676 13.80352452 -0.11794543 16.6171875 -0.16210938 C18.4114497 -0.17223915 20.20572189 -0.18075436 22 -0.1875 C23.25656403 -0.21376213 23.25656403 -0.21376213 24.53851318 -0.24055481 C29.94160304 -0.22064465 32.97230597 0.66119635 37.265625 4.23828125 C41.91852696 9.51995374 42.44185184 12.82360423 42.50390625 19.71875 C42.511978 20.56496414 42.52004974 21.41117828 42.52836609 22.28303528 C42.54221088 24.07774811 42.55293127 25.87248731 42.56079102 27.66723633 C42.57794927 30.39781522 42.62182394 33.12716594 42.66601562 35.85742188 C42.67614759 37.6028557 42.68466212 39.3482998 42.69140625 41.09375 C42.70891434 41.90442429 42.72642242 42.71509857 42.74446106 43.55033875 C42.71992169 50.0411089 41.02721153 53.98129216 36.77539062 58.99584961 C30.14406981 63.73005535 22.090086 62.95287572 14.29345703 62.83520508 C11.77132485 62.80085887 9.25269843 62.81458261 6.73046875 62.83398438 C5.10675612 62.82708506 3.48305243 62.81741189 1.859375 62.8046875 C1.11643188 62.80964737 0.37348877 62.81460724 -0.39196777 62.81971741 C-5.85553946 62.69859483 -10.32101907 61.57483567 -14.734375 58.23828125 C-19.42410776 53.12126743 -20.48002036 48.15249305 -20.36328125 41.390625 C-20.36569321 40.57509659 -20.36810516 39.75956818 -20.37059021 38.91932678 C-20.36961716 37.20747988 -20.35635388 35.49559936 -20.33129883 33.78393555 C-20.29690994 31.17842836 -20.31068645 28.57630573 -20.33007812 25.97070312 C-20.32318025 24.2981628 -20.31350838 22.62563113 -20.30078125 20.953125 C-20.30574112 20.18314682 -20.31070099 19.41316864 -20.31581116 18.61985779 C-20.19626157 13.07553174 -18.87852738 9.82270712 -15.734375 5.23828125 C-10.45393117 0.46073683 -6.94873886 0.06068749 0 0 Z " fill="#1F295B" transform="translate(243.734375,236.76171875)"/>
<path d="M0 0 C1.76803792 -0.01651918 3.53601018 -0.04375587 5.30371094 -0.08203125 C7.8659901 -0.13716496 10.42670727 -0.15873043 12.98950195 -0.17333984 C14.1602552 -0.2073439 14.1602552 -0.2073439 15.35466003 -0.24203491 C21.3202998 -0.21938033 25.48033133 1.38075596 29.9777832 5.35009766 C34.09489018 10.1158542 34.58351569 14.95987303 34.54418945 21.06494141 C34.55348732 22.28679893 34.55348732 22.28679893 34.56297302 23.53334045 C34.5700401 25.24690565 34.56695184 26.96053995 34.55419922 28.67407227 C34.54033607 31.27766884 34.57444225 33.87766336 34.61254883 36.48095703 C34.61350027 38.15478603 34.61163985 39.82861946 34.60668945 41.50244141 C34.61994766 42.27039536 34.63320587 43.0383493 34.64686584 43.82957458 C34.54662347 49.72897306 32.8881756 53.89443205 28.9777832 58.35009766 C24.18500148 62.50728082 19.33457893 62.93507817 13.19262695 62.84619141 C12.37331192 62.84764664 11.55399689 62.84910187 10.70985413 62.8506012 C8.98784813 62.84895009 7.26582615 62.83747764 5.54394531 62.81665039 C2.91903631 62.78763914 0.29614392 62.79606874 -2.32885742 62.80908203 C-4.0092057 62.80284506 -5.68954766 62.79445444 -7.36987305 62.78369141 C-8.14814957 62.78662704 -8.92642609 62.78956268 -9.72828674 62.79258728 C-15.20944974 62.69834828 -19.51156391 61.69377125 -23.66674805 57.81494141 C-27.76903866 52.45040753 -28.20246086 49.26100011 -28.26049805 42.61572266 C-28.26856979 41.7449408 -28.27664154 40.87415894 -28.28495789 39.97698975 C-28.29880187 38.13100172 -28.30952262 36.28498805 -28.31738281 34.43896484 C-28.33456481 31.62498931 -28.37844347 28.81219814 -28.42260742 25.99853516 C-28.43273719 24.20427296 -28.44125241 22.41000077 -28.44799805 20.61572266 C-28.46550613 19.77801331 -28.48301422 18.94030396 -28.50105286 18.07720947 C-28.48113798 12.67283984 -27.59579473 9.64706034 -24.0222168 5.35009766 C-16.9284835 -1.0515641 -9.01697255 0.06167446 0 0 Z " fill="#20295B" transform="translate(324.022216796875,164.64990234375)"/>
<path d="M0 0 C1.87193308 -0.02152577 3.74376699 -0.05556415 5.61523438 -0.10253906 C8.32320816 -0.16986703 11.02909787 -0.19705524 13.73779297 -0.21606445 C14.56517975 -0.24389511 15.39256653 -0.27172577 16.24502563 -0.30039978 C21.87654324 -0.28071565 25.24677288 1.06685375 29.55270386 4.72615051 C34.3379216 9.60687388 34.6658011 14.55924905 34.66748047 21.0222168 C34.67890076 22.24619675 34.67890076 22.24619675 34.69055176 23.49490356 C34.70131534 25.21442621 34.70422113 26.93401404 34.69970703 28.65356445 C34.69873574 31.26585486 34.74037402 33.87519429 34.78466797 36.48706055 C34.78987678 38.1654399 34.79256313 39.84382936 34.79248047 41.5222168 C34.81707336 42.6788533 34.81707336 42.6788533 34.84216309 43.8588562 C34.76825916 49.74245616 33.21462464 54.02977488 29.19873047 58.4050293 C24.07010102 62.28165605 18.87834961 63.0133164 12.60498047 62.97143555 C11.81401978 62.97763412 11.02305908 62.9838327 10.20812988 62.99021912 C8.54761984 62.99727479 6.88703841 62.9942182 5.2265625 62.98144531 C2.70422823 62.96755956 0.1855974 63.00173128 -2.33642578 63.03979492 C-16.80905435 63.11352138 -16.80905435 63.11352138 -22.31103516 59.06494141 C-27.32789333 53.47686494 -28.40386816 49.55120038 -28.33251953 42.2800293 C-28.33825989 40.98234619 -28.33825989 40.98234619 -28.34411621 39.65844727 C-28.34682818 37.83633251 -28.33951719 36.01417834 -28.32275391 34.19213867 C-28.30133294 31.4132556 -28.32257875 28.63695757 -28.34814453 25.8581543 C-28.34550113 24.08210696 -28.34037588 22.30606122 -28.33251953 20.5300293 C-28.34061646 19.70486816 -28.34871338 18.87970703 -28.35705566 18.02954102 C-28.270798 12.68652665 -27.31977492 9.65561601 -23.80126953 5.4050293 C-16.54751717 -0.98518111 -9.21971238 0.07966063 0 0 Z " fill="#1F295B" transform="translate(323.80126953125,236.594970703125)"/>
<path d="M0 0 C0.87078186 -0.00807175 1.74156372 -0.01614349 2.63873291 -0.02445984 C4.48472094 -0.03830382 6.3307346 -0.04902457 8.17675781 -0.05688477 C10.99073335 -0.07406676 13.80352452 -0.11794543 16.6171875 -0.16210938 C18.4114497 -0.17223915 20.20572189 -0.18075436 22 -0.1875 C23.25656403 -0.21376213 23.25656403 -0.21376213 24.53851318 -0.24055481 C29.93816356 -0.22065732 33.06910944 0.53690655 37.265625 4.23828125 C42.06055772 9.21081339 43.00747235 13.43485489 42.89453125 20.20703125 C42.89694321 21.04617065 42.89935516 21.88531006 42.90184021 22.74987793 C42.90086564 24.51477815 42.88756548 26.27971042 42.86254883 28.04443359 C42.82821536 30.73120972 42.84191506 33.41469535 42.86132812 36.1015625 C42.85442903 37.82423262 42.84475607 39.54689432 42.83203125 41.26953125 C42.83699112 42.06452026 42.84195099 42.85950928 42.84706116 43.67858887 C42.71361251 50.06341694 40.95819085 54.06269449 36.77539062 58.99584961 C30.14406981 63.73005535 22.090086 62.95287572 14.29345703 62.83520508 C11.77132485 62.80085887 9.25269843 62.81458261 6.73046875 62.83398438 C5.10675612 62.82708506 3.48305243 62.81741189 1.859375 62.8046875 C1.11643188 62.80964737 0.37348877 62.81460724 -0.39196777 62.81971741 C-5.85553946 62.69859483 -10.32101907 61.57483567 -14.734375 58.23828125 C-19.42410776 53.12126743 -20.48002036 48.15249305 -20.36328125 41.390625 C-20.36569321 40.57509659 -20.36810516 39.75956818 -20.37059021 38.91932678 C-20.36961716 37.20747988 -20.35635388 35.49559936 -20.33129883 33.78393555 C-20.29690994 31.17842836 -20.31068645 28.57630573 -20.33007812 25.97070312 C-20.32318025 24.2981628 -20.31350838 22.62563113 -20.30078125 20.953125 C-20.30574112 20.18314682 -20.31070099 19.41316864 -20.31581116 18.61985779 C-20.19626157 13.07553174 -18.87852738 9.82270712 -15.734375 5.23828125 C-10.45393117 0.46073683 -6.94873886 0.06068749 0 0 Z " fill="#1F295B" transform="translate(171.734375,236.76171875)"/>
<path d="M0 0 C8.39240345 4.68413216 11.16467882 17.1710204 14.5 25.625 C15.02097031 26.93829045 15.54229851 28.25143899 16.06396484 29.56445312 C16.87661768 31.61022113 17.68892388 33.65612151 18.49984741 35.70257568 C20.44752652 40.61700065 22.41093725 45.52492536 24.3828125 50.4296875 C24.93165509 51.79605539 25.48048341 53.16242901 26.02929688 54.52880859 C26.82062243 56.49877694 27.61234449 58.46857993 28.40551758 60.43780518 C29.13916245 62.25996473 29.87040829 64.08308962 30.6015625 65.90625 C31.01744629 66.94072266 31.43333008 67.97519531 31.86181641 69.04101562 C33.00058533 72.0015217 34.02087567 74.98332976 35 78 C29.20120006 79.0997724 26.14727735 79.35171548 21 76 C17.51485591 73.30272093 16.33968512 69.42326462 14.8125 65.4375 C14.40354492 64.40979492 14.40354492 64.40979492 13.98632812 63.36132812 C12 58.28847509 12 58.28847509 12 56 C1.77 56 -8.46 56 -19 56 C-19.99 58.97 -20.98 61.94 -22 65 C-25.93227792 75.36147757 -25.93227792 75.36147757 -30 78 C-34.27095508 78.97067161 -37.81444372 79.39518543 -42 78 C-40.70956097 74.034284 -39.30841397 70.1475436 -37.75683594 66.27685547 C-37.31587585 65.17485809 -36.87491577 64.07286072 -36.42059326 62.93746948 C-35.94664124 61.75927643 -35.47268921 60.58108337 -34.984375 59.3671875 C-34.48593093 58.12656067 -33.9874977 56.88592949 -33.48907471 55.64529419 C-32.44477029 53.04748094 -31.39884486 50.45032657 -30.35205078 47.85351562 C-29.02520389 44.56099957 -27.70464747 41.26600063 -26.38564682 37.97033501 C-25.35774357 35.40525102 -24.32524521 32.84203396 -23.29157257 30.27927017 C-22.5696224 28.48618454 -21.85233095 26.69122535 -21.13519287 24.89620972 C-10.53747251 -1.29407557 -10.53747251 -1.29407557 0 0 Z M-4 17 C-5.67223282 21.12276549 -7.33684063 25.24856675 -9 29.375 C-9.47695313 30.550625 -9.95390625 31.72625 -10.4453125 32.9375 C-10.89648438 34.05898438 -11.34765625 35.18046875 -11.8125 36.3359375 C-12.23144531 37.37282715 -12.65039062 38.4097168 -13.08203125 39.47802734 C-14.11401173 41.8659219 -14.11401173 41.8659219 -14 44 C-7.07 44 -0.14 44 7 44 C4.70434869 37.03553219 4.70434869 37.03553219 2.17578125 30.18359375 C1.86962891 29.40048828 1.56347656 28.61738281 1.24804688 27.81054688 C0.78495117 26.63588867 0.78495117 26.63588867 0.3125 25.4375 C-0.00783203 24.61958984 -0.32816406 23.80167969 -0.65820312 22.95898438 C-1.43678254 20.97186378 -2.21809845 18.98581573 -3 17 C-3.33 17 -3.66 17 -4 17 Z " fill="#121D44" transform="translate(308,329)"/>
<path d="M0 0 C0.84046875 0.04382813 1.6809375 0.08765625 2.546875 0.1328125 C6.97659967 1.34906638 10.04069462 3.75857464 12.29736328 7.70800781 C13.27419195 9.92398623 14.1188658 12.15832716 14.9375 14.4375 C15.60765729 16.20458476 16.27825785 17.97150146 16.94921875 19.73828125 C17.30935059 20.70459473 17.66948242 21.6709082 18.04052734 22.66650391 C20.12838687 28.20518978 22.31864739 33.7038819 24.49380493 39.20870972 C25.70904903 42.28828608 26.91688186 45.37074611 28.125 48.453125 C28.53492188 49.49887695 28.94484375 50.54462891 29.3671875 51.62207031 C29.65851563 52.36553711 29.94984375 53.10900391 30.25 53.875 C31.94479353 51.33280971 32.8968588 49.40969736 33.92651367 46.59057617 C34.24412155 45.72925583 34.56172943 44.86793549 34.88896179 43.98051453 C35.39832024 42.58830437 35.39832024 42.58830437 35.91796875 41.16796875 C36.65326321 39.19948337 37.38962543 37.23139657 38.12695312 35.26367188 C39.28435621 32.16655831 40.43557067 29.06778912 41.56860352 25.96166992 C42.66605294 22.96047682 43.78966729 19.97017702 44.91796875 16.98046875 C45.24741989 16.05840134 45.57687103 15.13633392 45.91630554 14.18632507 C48.1884261 8.25142467 50.82744588 4.32994047 56.25 0.875 C58.83203125 0.03515625 58.83203125 0.03515625 61.0625 -0.0625 C62.18591797 -0.13791016 62.18591797 -0.13791016 63.33203125 -0.21484375 C65.25 -0.125 65.25 -0.125 67.25 0.875 C66.67958656 4.87798566 65.8168787 8.40823185 64.33569336 12.16748047 C63.74388527 13.68098587 63.74388527 13.68098587 63.14012146 15.22506714 C62.49648399 16.84229172 62.49648399 16.84229172 61.83984375 18.4921875 C61.39411514 19.62214142 60.94838654 20.75209534 60.489151 21.91629028 C59.54302281 24.30962898 58.59384542 26.70176419 57.6418457 29.09277344 C56.20789321 32.69871744 54.78787535 36.30992121 53.36914062 39.921875 C49.45404427 49.8349761 45.53404932 59.75982942 40.94140625 69.3828125 C40.50766945 70.33364212 40.50766945 70.33364212 40.06517029 71.30368042 C37.93478256 75.57544521 35.68238203 77.22000134 31.25 78.875 C26.05 79.275 26.05 79.275 23.25 77.875 C22.27281189 75.89070129 22.27281189 75.89070129 21.23803711 73.24536133 C20.84680161 72.25534622 20.4555661 71.26533112 20.05247498 70.24531555 C19.63168167 69.16018173 19.21088837 68.07504791 18.77734375 66.95703125 C18.11443077 65.27283333 18.11443077 65.27283333 17.43812561 63.55461121 C16.01472712 59.93476201 14.60078312 56.31130903 13.1875 52.6875 C11.80219857 49.15169917 10.41490943 45.61668587 9.02676392 42.08200073 C8.11203308 39.75263298 7.19843444 37.4228203 6.28598022 35.09255981 C2.91702423 26.50789404 -0.54751977 17.96566639 -4.10646057 9.45796204 C-4.45603317 8.61549423 -4.80560577 7.77302643 -5.16577148 6.9050293 C-5.47320786 6.17084274 -5.78064423 5.43665619 -6.09739685 4.68022156 C-6.75 2.875 -6.75 2.875 -6.75 0.875 C-4.2526048 -0.3736976 -2.77606573 -0.19348337 0 0 Z " fill="#121D44" transform="translate(220.75,329.125)"/>
<path d="M0 0 C-0.2535853 4.31095008 -0.5845991 6.49714628 -3.375 9.875 C-7.29046572 13.04466272 -10.30241573 13.15547845 -15.19921875 13.31640625 C-17.01196289 13.37924805 -17.01196289 13.37924805 -18.86132812 13.44335938 C-20.12396484 13.48267578 -21.38660156 13.52199219 -22.6875 13.5625 C-24.59885742 13.62727539 -24.59885742 13.62727539 -26.54882812 13.69335938 C-29.69908727 13.79954789 -32.8495292 13.90028813 -36 14 C-36.33 19.28 -36.66 24.56 -37 30 C-28.09 30 -19.18 30 -10 30 C-10 36 -10 36 -11.8125 38.8125 C-14.23674564 41.23674564 -15.76208591 41.93543129 -19.17651367 42.11352539 C-19.99869385 42.10828857 -20.82087402 42.10305176 -21.66796875 42.09765625 C-22.56064453 42.09443359 -23.45332031 42.09121094 -24.37304688 42.08789062 C-25.76620117 42.07532227 -25.76620117 42.07532227 -27.1875 42.0625 C-28.12787109 42.05798828 -29.06824219 42.05347656 -30.03710938 42.04882812 C-32.35813712 42.03704626 -34.67903644 42.02059558 -37 42 C-36.04852887 52.01583719 -36.04852887 52.01583719 -32 61 C-27.23854538 64.54056882 -22.95538664 65.10873619 -17.140625 65.31640625 C-16.02558594 65.35830078 -14.91054687 65.40019531 -13.76171875 65.44335938 C-12.60285156 65.48267578 -11.44398438 65.52199219 -10.25 65.5625 C-9.07566406 65.60568359 -7.90132812 65.64886719 -6.69140625 65.69335938 C-3.79438549 65.79934794 -0.89728065 65.90141638 2 66 C2.296875 71.6484375 2.296875 71.6484375 -0.375 74.8125 C-5.44409993 79.03674994 -10.17803428 78.21972393 -16.5625 78.25 C-17.62275391 78.270625 -18.68300781 78.29125 -19.77539062 78.3125 C-29.52367047 78.36060996 -37.0929707 76.86623975 -44.27734375 69.99609375 C-53.25631971 59.59188351 -52.17740092 44.02516485 -52.25 31.125 C-52.2593457 29.95984863 -52.26869141 28.79469727 -52.27832031 27.59423828 C-52.21655564 11.05793558 -52.21655564 11.05793558 -47 5 C-39.38414796 -0.12092326 -30.60658626 0.33523514 -21.8125 0.25 C-20.3625956 0.22177723 -18.9127235 0.19184123 -17.46289062 0.16015625 C-11.64193477 0.04130765 -5.82218542 -0.01116752 0 0 Z " fill="#111D44" transform="translate(208,329)"/>
<path d="M0 0 C-0.2535853 4.31095008 -0.5845991 6.49714628 -3.375 9.875 C-7.29046572 13.04466272 -10.30241573 13.15547845 -15.19921875 13.31640625 C-17.01196289 13.37924805 -17.01196289 13.37924805 -18.86132812 13.44335938 C-20.12396484 13.48267578 -21.38660156 13.52199219 -22.6875 13.5625 C-24.59885742 13.62727539 -24.59885742 13.62727539 -26.54882812 13.69335938 C-29.69908727 13.79954789 -32.8495292 13.90028813 -36 14 C-36.33 19.28 -36.66 24.56 -37 30 C-28.09 30 -19.18 30 -10 30 C-10 36 -10 36 -11.8125 38.8125 C-14.23674564 41.23674564 -15.76208591 41.93543129 -19.17651367 42.11352539 C-19.99869385 42.10828857 -20.82087402 42.10305176 -21.66796875 42.09765625 C-22.56064453 42.09443359 -23.45332031 42.09121094 -24.37304688 42.08789062 C-25.76620117 42.07532227 -25.76620117 42.07532227 -27.1875 42.0625 C-28.12787109 42.05798828 -29.06824219 42.05347656 -30.03710938 42.04882812 C-32.35813712 42.03704626 -34.67903644 42.02059558 -37 42 C-36.04852887 52.01583719 -36.04852887 52.01583719 -32 61 C-27.23854538 64.54056882 -22.95538664 65.10873619 -17.140625 65.31640625 C-16.02558594 65.35830078 -14.91054688 65.40019531 -13.76171875 65.44335938 C-12.60285156 65.48267578 -11.44398438 65.52199219 -10.25 65.5625 C-9.07566406 65.60568359 -7.90132813 65.64886719 -6.69140625 65.69335938 C-3.79438549 65.79934794 -0.89728065 65.90141638 2 66 C2.296875 71.6484375 2.296875 71.6484375 -0.375 74.8125 C-5.44409993 79.03674994 -10.17803428 78.21972393 -16.5625 78.25 C-17.62275391 78.270625 -18.68300781 78.29125 -19.77539062 78.3125 C-29.52094599 78.36059651 -37.10021608 76.86967366 -44.27734375 69.9921875 C-53.19918738 59.67440916 -52.17074558 44.03426423 -52.25 31.1875 C-52.2593457 30.13820313 -52.26869141 29.08890625 -52.27832031 28.0078125 C-52.21242939 11.97097661 -52.21242939 11.97097661 -47.8125 6.0625 C-42.17867211 1.93102621 -37.4638576 0.63177097 -30.52734375 0.48828125 C-29.84120499 0.47033005 -29.15506622 0.45237885 -28.44813538 0.43388367 C-26.27798497 0.38024769 -24.10804316 0.34610124 -21.9375 0.3125 C-20.47848601 0.2792706 -19.01950026 0.24477588 -17.56054688 0.20898438 C-11.70680106 0.07248653 -5.85550902 -0.01631374 0 0 Z " fill="#111D44" transform="translate(458,329)"/>
<path d="M0 0 C-0.2535853 4.31095008 -0.5845991 6.49714628 -3.375 9.875 C-7.29046572 13.04466272 -10.30241573 13.15547845 -15.19921875 13.31640625 C-17.01196289 13.37924805 -17.01196289 13.37924805 -18.86132812 13.44335938 C-20.12396484 13.48267578 -21.38660156 13.52199219 -22.6875 13.5625 C-24.59885742 13.62727539 -24.59885742 13.62727539 -26.54882812 13.69335938 C-29.69908727 13.79954789 -32.8495292 13.90028813 -36 14 C-36 18.95 -36 23.9 -36 29 C-22.635 29.495 -22.635 29.495 -9 30 C-9.94965366 35.69792198 -10.29717507 37.07276144 -14 41 C-16.45275141 42.2263757 -18.0505781 42.11415314 -20.7890625 42.09765625 C-21.73007813 42.09443359 -22.67109375 42.09121094 -23.640625 42.08789062 C-24.62546875 42.07951172 -25.6103125 42.07113281 -26.625 42.0625 C-28.11386719 42.05573242 -28.11386719 42.05573242 -29.6328125 42.04882812 C-32.0886016 42.03702145 -34.54427104 42.020554 -37 42 C-36.54771375 44.39711711 -36.0883992 46.79252818 -35.625 49.1875 C-35.49867187 49.86103516 -35.37234375 50.53457031 -35.2421875 51.22851562 C-34.86531757 53.159974 -34.43363072 55.08048787 -34 57 C-33.82210937 57.92425781 -33.64421875 58.84851563 -33.4609375 59.80078125 C-31.40761334 62.89174784 -29.2956721 63.49528024 -25.78564453 64.49462891 C-20.35840378 65.47923788 -14.93324482 65.3061132 -9.4375 65.1875 C-8.23802734 65.17396484 -7.03855469 65.16042969 -5.80273438 65.14648438 C-2.86801121 65.111408 0.06574882 65.06225427 3 65 C2.42194755 69.66428526 1.9022587 73.04466726 -1.390625 76.53125 C-6.55613769 78.63323352 -11.22504912 78.58144891 -16.75 78.5 C-18.30074219 78.52320313 -18.30074219 78.52320313 -19.8828125 78.546875 C-28.46229595 78.50365342 -35.09883462 76.5026344 -42.3125 71.875 C-49.74855552 63.92014991 -51.15098773 55.20860177 -51.203125 44.75390625 C-51.20882507 43.86517319 -51.21452515 42.97644012 -51.22039795 42.06077576 C-51.22982064 40.1856301 -51.23637104 38.31046809 -51.24023438 36.43530273 C-51.24995508 33.57571492 -51.28101022 30.71684172 -51.3125 27.85742188 C-51.31902943 26.03125425 -51.32428014 24.2050815 -51.328125 22.37890625 C-51.3404718 21.52873428 -51.3528186 20.67856232 -51.36553955 19.80262756 C-51.34273913 13.69238351 -50.07002171 9.66145648 -46.25 4.75 C-41.45608288 1.0213978 -35.63393617 0.73709664 -29.74609375 0.5859375 C-29.08215103 0.56657135 -28.41820831 0.5472052 -27.73414612 0.5272522 C-25.63538986 0.4681071 -23.53657193 0.42142574 -21.4375 0.375 C-20.02667065 0.33674242 -18.61586272 0.29768641 -17.20507812 0.2578125 C-11.46932668 0.10166245 -5.73827286 -0.02083654 0 0 Z " fill="#111D44" transform="translate(101,329)"/>
<path d="M0 0 C3.33232365 3.04255637 3.95867299 5.1319617 4.17700195 9.71777344 C4.20391018 11.2648748 4.22388198 12.81210665 4.23828125 14.359375 C4.246353 15.18197815 4.25442474 16.0045813 4.26274109 16.85211182 C4.2765672 18.59376935 4.28729595 20.33545381 4.29516602 22.07714844 C4.30667609 23.85196918 4.32711259 25.62675558 4.35668945 27.40136719 C4.39951569 29.97094153 4.41555644 32.53948736 4.42578125 35.109375 C4.44328934 35.89503845 4.46079742 36.6807019 4.47883606 37.49017334 C4.45686767 43.12633233 3.20900359 46.34824837 0 51 C-5.22055617 55.83856425 -9.4811514 56.17427078 -16.359375 56.23828125 C-17.18197815 56.246353 -18.0045813 56.25442474 -18.85211182 56.26274109 C-20.59376935 56.2765672 -22.33545381 56.28729595 -24.07714844 56.29516602 C-25.85196918 56.30667609 -27.62675558 56.32711259 -29.40136719 56.35668945 C-31.97094153 56.39951569 -34.53948736 56.41555644 -37.109375 56.42578125 C-37.89503845 56.44328934 -38.6807019 56.46079742 -39.49017334 56.47883606 C-46.22189677 56.45259742 -50.41994721 54.44426054 -55.375 49.75 C-57.52962475 46.10371195 -57.56283106 43.20025064 -58 39 C-57.38181396 38.65855957 -56.76362793 38.31711914 -56.12670898 37.96533203 C-35.95383205 26.78834128 -17.666072 14.79699565 0 0 Z " fill="#20295B" transform="translate(282,171)"/>
<path d="M0 0 C1.7115477 0.0001133 1.7115477 0.0001133 3.45767212 0.00022888 C4.69415497 0.00539017 5.93063782 0.01055145 7.20458984 0.01586914 C8.46693451 0.01728409 9.72927917 0.01869904 11.02987671 0.02015686 C14.38691033 0.02481461 17.74387635 0.03380131 21.10089111 0.04486084 C24.52607641 0.05508769 27.95126868 0.05965721 31.37646484 0.06469727 C38.09783777 0.07574301 44.81917865 0.09249346 51.54052734 0.11352539 C50.88052677 5.47510311 49.6947424 7.56724425 45.54052734 11.11352539 C39.86798137 13.94979838 32.88262654 12.11352539 26.54052734 12.11352539 C26.87052734 33.56352539 27.20052734 55.01352539 27.54052734 77.11352539 C19.45481306 77.11352539 19.45481306 77.11352539 14.54052734 73.11352539 C12.25594236 69.68664791 12.29601282 68.47412229 12.31347656 64.44873047 C12.31362762 63.28775345 12.31377869 62.12677643 12.31393433 60.93061829 C12.3242569 59.67742294 12.33457947 58.4242276 12.34521484 57.13305664 C12.34804474 55.84993088 12.35087463 54.56680511 12.35379028 53.24479675 C12.36141937 49.83676337 12.38106147 46.42890098 12.40319824 43.02093506 C12.42367237 39.54205641 12.43279534 36.06315007 12.44287109 32.58422852 C12.46430819 25.76058356 12.49948435 18.93708029 12.54052734 12.11352539 C4.62052734 12.11352539 -3.29947266 12.11352539 -11.45947266 12.11352539 C-11.45947266 5.95188765 -11.43420655 5.20516322 -7.45947266 1.11352539 C-4.84425481 -0.19408353 -2.92833865 -0.00645009 0 0 Z " fill="#111D44" transform="translate(351.45947265625,329.886474609375)"/>
<path d="M0 0 C6.26741473 0.797811 8.56237271 1.6680305 13 6 C14.43677195 8.8735439 14.20210688 11.42372739 14.28125 14.6328125 C14.29920624 15.29768677 14.31716248 15.96256104 14.33566284 16.64758301 C14.37394469 18.07028469 14.41033039 19.49303841 14.44500732 20.91583252 C14.5362114 24.57968555 14.64806214 28.24291366 14.7578125 31.90625 C14.77889069 32.61899078 14.79996887 33.33173157 14.82168579 34.06607056 C15.04803798 41.84745594 15.04803798 41.84745594 15.375 49.625 C15.42398438 50.75164062 15.47296875 51.87828125 15.5234375 53.0390625 C16.09847756 56.61185239 17.00637136 58.97138117 19 62 C24.05127283 65.64468762 29.37060522 65.53760427 35.375 65.6875 C36.30183594 65.72166016 37.22867188 65.75582031 38.18359375 65.79101562 C40.45560812 65.87299552 42.72726104 65.94230494 45 66 C44.26830205 70.41236035 43.11124641 72.71096808 40 76 C36.35980057 78.4725883 32.56479039 78.34656572 28.3125 78.3125 C27.59860107 78.30758545 26.88470215 78.3026709 26.14916992 78.29760742 C19.11287464 78.14174265 13.60492376 77.20852232 8.125 72.5625 C7.42375 71.716875 6.7225 70.87125 6 70 C5.24360229 69.1030542 5.24360229 69.1030542 4.47192383 68.18798828 C-3.18518439 56.80583472 -0.32711432 38.08015544 -0.1875 25.125 C-0.17242564 22.68360201 -0.15874211 20.24219501 -0.14648438 17.80078125 C-0.11369801 11.86698845 -0.06371706 5.9335371 0 0 Z " fill="#121D44" transform="translate(108,329)"/>
<path d="M0 0 C12.9858156 0 12.9858156 0 17.66015625 4.65234375 C22.44762689 10.00570927 23.17003686 14.00952866 23.23828125 21.140625 C23.246353 21.9410321 23.25442474 22.74143921 23.26274109 23.56610107 C23.27656601 25.26067957 23.28729528 26.95528573 23.29516602 28.64990234 C23.30667482 30.37622277 23.32710935 32.10250793 23.35668945 33.82861328 C23.39953023 36.32869544 23.41555833 38.82772054 23.42578125 41.328125 C23.44328934 42.09191467 23.46079742 42.85570435 23.47883606 43.64263916 C23.45232095 50.26384092 21.4474852 54.5525148 16.6875 59.3125 C11.08149766 62.83254798 6.63088899 63 0 63 C0 42.21 0 21.42 0 0 Z " fill="#20295B" transform="translate(335,93)"/>
<path d="M0 0 C20.13 0 40.26 0 61 0 C56.44927536 9.10144928 56.44927536 9.10144928 51 12 C45.16979558 13.94340147 38.52202959 13.30708977 32.4050293 13.35009766 C30.68549017 13.36661456 28.96601849 13.39384829 27.24682617 13.43212891 C9.59100511 13.82278199 9.59100511 13.82278199 3 8 C0.05338551 4.96130381 0 4.42502729 0 0 Z " fill="#111D44" transform="translate(297,286)"/>
<path d="M0 0 C20.13 0 40.26 0 61 0 C58.07554577 6.82372653 57.03413012 8.34445673 51.35253906 12.08447266 C47.890748 13.43168275 44.46067232 13.32525855 40.796875 13.3359375 C39.60194427 13.3459227 39.60194427 13.3459227 38.38287354 13.35610962 C36.69846906 13.36622091 35.01402464 13.37092711 33.32958984 13.37060547 C30.772426 13.3749618 28.217013 13.41124807 25.66015625 13.44921875 C24.01823502 13.45509091 22.37630565 13.45905763 20.734375 13.4609375 C19.97888367 13.47530853 19.22339233 13.48967957 18.44500732 13.50448608 C12.92414415 13.45777426 8.5829216 12.14533896 4 9 C0 4.1 0 4.1 0 0 Z " fill="#111D44" transform="translate(225,286)"/>
<path d="M0 0 C20.13 0 40.26 0 61 0 C58.07554577 6.82372653 57.03413012 8.34445673 51.35253906 12.08447266 C47.890748 13.43168275 44.46067232 13.32525855 40.796875 13.3359375 C39.60194427 13.3459227 39.60194427 13.3459227 38.38287354 13.35610962 C36.69846906 13.36622091 35.01402464 13.37092711 33.32958984 13.37060547 C30.772426 13.3749618 28.217013 13.41124807 25.66015625 13.44921875 C24.01823502 13.45509091 22.37630565 13.45905763 20.734375 13.4609375 C19.97888367 13.47530853 19.22339233 13.48967957 18.44500732 13.50448608 C12.92414415 13.45777426 8.5829216 12.14533896 4 9 C0 4.1 0 4.1 0 0 Z " fill="#111D44" transform="translate(153,286)"/>
<path d="M0 0 C-0.375 2.4375 -0.375 2.4375 -1 5 C-3.64458379 6.32229189 -5.67761301 6.09677194 -8.625 6.0625 C-9.62789062 6.05347656 -10.63078125 6.04445313 -11.6640625 6.03515625 C-12.43492187 6.02355469 -13.20578125 6.01195312 -14 6 C-14 7.98 -14 9.96 -14 12 C-10.7 12 -7.4 12 -4 12 C-5 16 -5 16 -6 17 C-8.67058851 17.14115161 -11.32432238 17.04247107 -14 17 C-13.01 19.31 -12.02 21.62 -11 24 C-9.95199219 23.98839844 -8.90398437 23.97679687 -7.82421875 23.96484375 C-6.44531428 23.95546345 -5.06640789 23.9463635 -3.6875 23.9375 C-2.99720703 23.92912109 -2.30691406 23.92074219 -1.59570312 23.91210938 C1.5483025 23.89692094 3.99420019 23.99806673 7 25 C9.33299825 25.03954234 11.66708189 25.04401732 14 25 C14.33 23.68 14.66 22.36 15 21 C14.31292969 20.60167969 13.62585938 20.20335937 12.91796875 19.79296875 C12.01691406 19.26316406 11.11585938 18.73335938 10.1875 18.1875 C9.29417969 17.66542969 8.40085938 17.14335937 7.48046875 16.60546875 C5.28604462 15.18514069 3.60495832 14.05020482 2 12 C1.2802974 6.96208178 1.2802974 6.96208178 2 4 C4.53595947 1.40064154 6.30318679 0.09922884 10.00390625 -0.1171875 C14.31016838 0.25869117 17.44980722 1.44829894 21 4 C20.67 4.99 20.34 5.98 20 7 C14.555 6.505 14.555 6.505 9 6 C10.46865717 10.40597152 13.59198959 11.19047841 17.5546875 13.3046875 C20.36313807 15.25176026 21.54772975 16.92715004 23 20 C23 23.70430594 22.43404479 25.43125165 20.1875 28.375 C15.31169707 30.86070346 10.37546622 30.63588734 5 30 C2.62890625 28.9765625 2.62890625 28.9765625 1 28 C0.34 28.66 -0.32 29.32 -1 30 C-5.81023729 30.62342775 -11.55362576 31.32944378 -15.93359375 28.94921875 C-20.60684831 24.24822974 -20.24395984 19.7722385 -20.3125 13.5625 C-20.34150391 12.69044922 -20.37050781 11.81839844 -20.40039062 10.91992188 C-20.46349176 4.6049545 -20.46349176 4.6049545 -18.42578125 1.9453125 C-15.19769636 0.68734705 -12.3327319 0.47491956 -8.875 0.3125 C-7.63492188 0.24675781 -6.39484375 0.18101562 -5.1171875 0.11328125 C-3.41216593 0.05131931 -1.70614707 0 0 0 Z " fill="#C02228" transform="translate(183,423)"/>
<path d="M0 0 C6.671875 -0.2265625 6.671875 -0.2265625 9.625 1.8125 C12.89662263 6.20336195 14.92347959 10.95449722 17 16 C17.03738281 15.09636719 17.07476562 14.19273437 17.11328125 13.26171875 C17.17902344 12.08222656 17.24476563 10.90273438 17.3125 9.6875 C17.37050781 8.51574219 17.42851562 7.34398437 17.48828125 6.13671875 C18 3 18 3 19.29296875 1.08203125 C21 0 21 0 25 0 C25 9.57 25 19.14 25 29 C18 29 18 29 15.26953125 26.92578125 C11.48059956 22.04125485 9.45736161 16.6576465 7 11 C6.67 16.94 6.34 22.88 6 29 C1 28 1 28 0 27 C-0.08758003 25.00035018 -0.10696576 22.9976389 -0.09765625 20.99609375 C-0.09443359 19.78115234 -0.09121094 18.56621094 -0.08789062 17.31445312 C-0.07951172 16.03505859 -0.07113281 14.75566406 -0.0625 13.4375 C-0.05798828 12.15423828 -0.05347656 10.87097656 -0.04882812 9.54882812 C-0.03699545 6.36583978 -0.02051068 3.18294238 0 0 Z " fill="#C02228" transform="translate(413,424)"/>
<path d="M0 0 C6.45189745 -0.35886293 6.45189745 -0.35886293 8.85546875 1.21484375 C12.43208266 5.84031805 14.89666204 10.54369387 17 16 C17.04898438 15.01257813 17.09796875 14.02515625 17.1484375 13.0078125 C17.22320312 11.72648437 17.29796875 10.44515625 17.375 9.125 C17.44460937 7.84882813 17.51421875 6.57265625 17.5859375 5.2578125 C18 2 18 2 20 0 C21.65 0 23.3 0 25 0 C24.67 9.57 24.34 19.14 24 29 C17 29 17 29 14.765625 26.92578125 C11.68437138 21.8198986 9.42127789 16.44787526 7 11 C6.67 16.94 6.34 22.88 6 29 C1 28 1 28 0 27 C-0.08758003 25.00035018 -0.10696576 22.9976389 -0.09765625 20.99609375 C-0.09443359 19.78115234 -0.09121094 18.56621094 -0.08789062 17.31445312 C-0.07951172 16.03505859 -0.07113281 14.75566406 -0.0625 13.4375 C-0.05798828 12.15423828 -0.05347656 10.87097656 -0.04882812 9.54882812 C-0.03699545 6.36583978 -0.02051068 3.18294238 0 0 Z " fill="#C02228" transform="translate(136,424)"/>
<path d="M0 0 C3.70690466 3.18966215 5.35775293 5.8129358 6.00390625 10.7109375 C6.27006248 16.4290037 5.58812548 19.87012098 1.6875 24.3125 C-2.54162674 28.26663868 -6.61700434 27.86129956 -12.16796875 27.73046875 C-16.82286216 27.11174379 -18.34952648 25.91611644 -21.3125 22.3125 C-23.92769362 18.03309226 -23.96461707 13.18665705 -23.3125 8.3125 C-21.92379034 3.82116686 -19.61961081 1.15252651 -15.5625 -1.1875 C-9.80853957 -3.66876175 -5.45656834 -2.77976123 0 0 Z M-14.125 4.125 C-17.30806708 8.76318347 -17.18083941 12.84851523 -16.3125 18.3125 C-15.00194108 21.60154021 -15.00194108 21.60154021 -12.3125 23.3125 C-8.8125 24.14583333 -8.8125 24.14583333 -5.3125 23.3125 C-2.31301107 20.70768066 -1.43552874 18.75540346 -0.375 14.9375 C-0.29672575 10.39759328 -1.13730976 8.27445366 -3.3125 4.3125 C-7.63056544 1.43378971 -9.72501686 1.28945531 -14.125 4.125 Z " fill="#C02228" transform="translate(405.3125,425.6875)"/>
<path d="M0 0 C3.89968373 2.24727537 6.38791743 4.85234517 8.5 8.8125 C9.30247297 13.9282652 9.53417823 18.59809414 6.66015625 23.09765625 C4.6108665 25.53776409 2.86828336 27.56585832 0 29 C-1.93359586 29.14851844 -3.87342097 29.22130833 -5.8125 29.25 C-6.85019531 29.27578125 -7.88789063 29.3015625 -8.95703125 29.328125 C-13.33533931 28.85600963 -15.96977081 27.25099259 -18.75 23.875 C-21.08475411 18.50506554 -21.53725147 13.89618165 -19.9375 8.25 C-15.22997962 0.35351419 -8.87506052 -2.38434462 0 0 Z M-12 6 C-14.55231139 10.22640812 -14.57495593 14.18581676 -14 19 C-12.2880813 22.76398568 -12.2880813 22.76398568 -9 25 C-6.0842309 25.41702122 -6.0842309 25.41702122 -3 25 C-0.15529883 22.69348553 1.79259118 20.7306736 2.23828125 17.01171875 C2.36609533 13.00911996 2.31665425 10.58459246 0.375 7 C-3.54008859 3.70308329 -7.74306881 2.80730161 -12 6 Z " fill="#C02228" transform="translate(283,424)"/>
<path d="M0 0 C2.5625 1.5625 2.5625 1.5625 4 4 C4.125 5.9375 4.125 5.9375 4.0625 8.0625 C3.59441694 11.87285267 3.59441694 11.87285267 5.4375 13.875 C5.953125 14.24625 6.46875 14.6175 7 15 C8.45147903 17.90295805 8.37239025 19.77261779 8 23 C5.75306714 27.33337051 5.75306714 27.33337051 3 29 C-1.13418754 29.80513873 -4.862816 29.77822548 -9 29 C-12.48242391 26.47353559 -13.65226822 25.04319535 -15 21 C-15.1482833 18.1740624 -15.23101438 15.38898351 -15.25 12.5625 C-15.270625 11.79873047 -15.29125 11.03496094 -15.3125 10.24804688 C-15.33638785 6.81715422 -15.31704492 4.59026305 -13.671875 1.52734375 C-9.71531341 -2.08717863 -4.84368139 -1.10163151 0 0 Z M-9 5 C-9.04063832 6.66617115 -9.042721 8.33388095 -9 10 C-7.02 10 -5.04 10 -3 10 C-2.61781233 8.34385343 -2.28604898 6.67542976 -2 5 C-3.0595877 3.71677453 -3.0595877 3.71677453 -5.5 3.875 C-7.9404123 3.71677453 -7.9404123 3.71677453 -9 5 Z M-9 15 C-8.96217193 20.3776135 -8.96217193 20.3776135 -6.25 24.5625 C-3.552335 25.08704597 -1.63122827 24.73089674 1 24 C2.0966025 19.98375387 2.0966025 19.98375387 1.0625 16.125 C-2.24367151 14.32163372 -5.27418207 14.81676305 -9 15 Z " fill="#C02228" transform="translate(67,424)"/>
<path d="M0 0 C1.32 0 2.64 0 4 0 C4.02505615 0.62567871 4.0501123 1.25135742 4.07592773 1.89599609 C4.19175273 4.72254619 4.31453985 7.54875169 4.4375 10.375 C4.47681641 11.35984375 4.51613281 12.3446875 4.55664062 13.359375 C4.59853516 14.30039062 4.64042969 15.24140625 4.68359375 16.2109375 C4.72025146 17.08024902 4.75690918 17.94956055 4.79467773 18.84521484 C4.87401544 21.0483262 4.87401544 21.0483262 6 23 C9.28414305 23.95067299 10.69693408 24.10102197 14 23 C15.11961652 20.76076697 15.15071941 19.4567906 15.2109375 16.97265625 C15.25347656 15.78446289 15.25347656 15.78446289 15.296875 14.57226562 C15.34882984 12.90321628 15.39313956 11.2339109 15.4296875 9.56445312 C15.460625 8.77103516 15.4915625 7.97761719 15.5234375 7.16015625 C15.54325684 6.43449463 15.56307617 5.70883301 15.58349609 4.96118164 C16.12255089 2.42294765 16.90508792 1.51008494 19 0 C20.32 0 21.64 0 23 0 C22.94785974 3.54284097 22.8527229 7.08329315 22.75 10.625 C22.72873047 12.12353516 22.72873047 12.12353516 22.70703125 13.65234375 C22.50727567 19.68496232 22.05146017 23.41545297 18 28 C13.80888835 30.09555583 8.55233879 29.55842023 4 29 C1.02638914 26.78436838 -0.36959793 25.26080415 -2 22 C-2.23799705 18.6720413 -2.18518365 15.33553913 -2.1875 12 C-2.19974609 11.071875 -2.21199219 10.14375 -2.22460938 9.1875 C-2.22654297 8.300625 -2.22847656 7.41375 -2.23046875 6.5 C-2.23457764 5.6853125 -2.23868652 4.870625 -2.24291992 4.03125 C-2 2 -2 2 0 0 Z " fill="#C02228" transform="translate(314,424)"/>
<path d="M0 0 C1.32 0 2.64 0 4 0 C4.02505615 0.62567871 4.0501123 1.25135742 4.07592773 1.89599609 C4.19175273 4.72254619 4.31453985 7.54875169 4.4375 10.375 C4.47681641 11.35984375 4.51613281 12.3446875 4.55664062 13.359375 C4.59853516 14.30039062 4.64042969 15.24140625 4.68359375 16.2109375 C4.72025146 17.08024902 4.75690918 17.94956055 4.79467773 18.84521484 C4.87401544 21.0483262 4.87401544 21.0483262 6 23 C9.28414305 23.95067299 10.69693408 24.10102197 14 23 C15.1465218 20.70695639 15.16709291 19.27018444 15.24609375 16.71875 C15.27896484 15.87699219 15.31183594 15.03523438 15.34570312 14.16796875 C15.40689657 12.38945288 15.46418906 10.6107985 15.51757812 8.83203125 C15.55173828 7.99027344 15.58589844 7.14851563 15.62109375 6.28125 C15.6461499 5.50845703 15.67120605 4.73566406 15.69702148 3.93945312 C16 2 16 2 18 0 C19.32 0 20.64 0 22 0 C22.11681812 3.54138618 22.187455 7.0822724 22.25 10.625 C22.30027344 12.12353516 22.30027344 12.12353516 22.3515625 13.65234375 C22.43256035 19.76768171 22.14794175 23.37581308 18 28 C13.80888835 30.09555583 8.55233879 29.55842023 4 29 C1.02638914 26.78436838 -0.36959793 25.26080415 -2 22 C-2.23799705 18.6720413 -2.18518365 15.33553913 -2.1875 12 C-2.19974609 11.071875 -2.21199219 10.14375 -2.22460938 9.1875 C-2.22654297 8.300625 -2.22847656 7.41375 -2.23046875 6.5 C-2.23457764 5.6853125 -2.23868652 4.870625 -2.24291992 4.03125 C-2 2 -2 2 0 0 Z " fill="#C02228" transform="translate(79,424)"/>
<path d="M0 0 C3 1.5625 3 1.5625 5 3 C4.67 3.99 4.34 4.98 4 6 C-0.29 5.67 -4.58 5.34 -9 5 C-6.05580529 7.94419471 -4.34163086 9.55853038 -0.9375 11.5 C4.65003955 14.94008965 4.65003955 14.94008965 6 18 C5.93217083 21.79843376 5.65522797 24.13100971 3.34765625 27.19140625 C0.26005509 29.57004075 -1.63880744 29.5039196 -5.5 29.4375 C-6.6240625 29.43621094 -7.748125 29.43492187 -8.90625 29.43359375 C-12.21221179 28.9702582 -13.66080693 28.34492639 -16 26 C-16 25.34 -16 24.68 -16 24 C-12.25 22.875 -12.25 22.875 -10 24 C-8.62657169 24.0689472 -7.24997898 24.08467708 -5.875 24.0625 C-4.59625 24.041875 -3.3175 24.02125 -2 24 C-2.11946879 21.59710518 -2.11946879 21.59710518 -3 19 C-5.2102629 17.2092827 -5.2102629 17.2092827 -7.9375 15.875 C-12.81412639 13.27881041 -12.81412639 13.27881041 -15 10 C-15.375 7.0625 -15.375 7.0625 -15 4 C-10.77928336 -1.38505226 -6.36279227 -1.44833988 0 0 Z " fill="#C02228" transform="translate(255,424)"/>
<path d="M0 0 C0.66 0.515625 1.32 1.03125 2 1.5625 C2 2.2225 2 2.8825 2 3.5625 C-1.12180401 4.52911363 -3.52083795 4.55238909 -6.75 4.125 C-7.94882813 3.97224609 -7.94882813 3.97224609 -9.171875 3.81640625 C-9.77515625 3.73261719 -10.3784375 3.64882813 -11 3.5625 C-10.32627421 6.6416343 -10.32627421 6.6416343 -8.07421875 7.7734375 C-7.28660156 8.15757812 -6.49898437 8.54171875 -5.6875 8.9375 C-1.85567496 10.9909182 0.9216897 12.59481669 3 16.5625 C3 20.42208922 2.6885647 22.65307492 0.34375 25.75 C-2.74078287 28.13537208 -4.63753227 28.06644153 -8.5 28 C-9.6240625 27.99871094 -10.748125 27.99742187 -11.90625 27.99609375 C-15.21221179 27.5327582 -16.66080693 26.90742639 -19 24.5625 C-19 23.9025 -19 23.2425 -19 22.5625 C-15.25 21.4375 -15.25 21.4375 -13 22.5625 C-11.45976004 22.63200541 -9.91665012 22.64702357 -8.375 22.625 C-7.55773437 22.61597656 -6.74046875 22.60695313 -5.8984375 22.59765625 C-5.27195312 22.58605469 -4.64546875 22.57445312 -4 22.5625 C-4.0905674 20.6689734 -4.0905674 20.6689734 -5 18.5625 C-7.4600981 16.65406252 -7.4600981 16.65406252 -10.4375 15 C-15.80185317 11.85972024 -15.80185317 11.85972024 -18 8.5625 C-18.375 5.625 -18.375 5.625 -18 2.5625 C-13.12161596 -3.66164515 -6.65425838 -3.18849881 0 0 Z " fill="#C02228" transform="translate(122,425.4375)"/>
<path d="M0 0 C0.99 0.7115625 0.99 0.7115625 2 1.4375 C1.67 2.4275 1.34 3.4175 1 4.4375 C-2.63 4.1075 -6.26 3.7775 -10 3.4375 C-8.53134283 7.84347152 -5.40801041 8.62797841 -1.4453125 10.7421875 C1.36313807 12.68926026 2.54772975 14.36465004 4 17.4375 C4 21.14180594 3.43404479 22.86875165 1.1875 25.8125 C-3.66057638 28.28406835 -8.65858361 28.2530395 -14 27.4375 C-16.37109375 26.03515625 -16.37109375 26.03515625 -18 24.4375 C-18 23.7775 -18 23.1175 -18 22.4375 C-15 21.4375 -15 21.4375 -12 22.4375 C-9.66700175 22.47704234 -7.33291811 22.48151732 -5 22.4375 C-4.67 21.1175 -4.34 19.7975 -4 18.4375 C-4.68707031 18.03917969 -5.37414062 17.64085937 -6.08203125 17.23046875 C-6.98308594 16.70066406 -7.88414062 16.17085938 -8.8125 15.625 C-9.70582031 15.10292969 -10.59914062 14.58085937 -11.51953125 14.04296875 C-14.64596267 12.01940447 -16.57847059 10.58165127 -17.875 7.0625 C-18.04025496 3.59214588 -17.12346347 2.1467465 -15 -0.5625 C-10.56110115 -4.17938054 -4.61865904 -2.40555159 0 0 Z " fill="#C02228" transform="translate(225,425.5625)"/>
<path d="M0 0 C3 1.5625 3 1.5625 5 3 C4.67 3.99 4.34 4.98 4 6 C0.37 5.67 -3.26 5.34 -7 5 C-5.78821999 8.63534004 -4.73911373 9.07521045 -1.5625 11.0625 C0.89808881 12.61468524 2.93883462 13.93883462 5 16 C5.3359375 18.27734375 5.3359375 18.27734375 5.375 20.9375 C5.40335937 21.81277344 5.43171875 22.68804687 5.4609375 23.58984375 C5 26 5 26 3.3515625 27.796875 C0.39745145 29.30828065 -1.69229783 29.36625016 -5 29.3125 C-6.03125 29.30863281 -7.0625 29.30476563 -8.125 29.30078125 C-10.92633186 29.00770713 -12.61170203 28.44101632 -15 27 C-14.67 25.68 -14.34 24.36 -14 23 C-13.319375 23.165 -12.63875 23.33 -11.9375 23.5 C-8.5835178 24.07089059 -5.39610195 24.06659023 -2 24 C-2 22.68 -2 21.36 -2 20 C-4.10415471 18.11245412 -4.10415471 18.11245412 -6.8125 16.5 C-10.24000026 14.32380936 -12.90716999 12.53471289 -15 9 C-14.86850006 5.77825143 -14.58842409 3.77564994 -12.625 1.1875 C-8.64406667 -1.72164359 -4.54582905 -1.03475097 0 0 Z " fill="#C02228" transform="translate(455,424)"/>
<path d="M0 0 C0.91644287 0.00523682 1.83288574 0.01047363 2.77709961 0.01586914 C3.76645508 0.0190918 4.75581055 0.02231445 5.77514648 0.02563477 C6.81606445 0.03401367 7.85698242 0.04239258 8.92944336 0.05102539 C10.49662109 0.05779297 10.49662109 0.05779297 12.09545898 0.06469727 C14.68600996 0.07652627 17.27644895 0.0930085 19.86694336 0.11352539 C18.99194336 3.98852539 18.99194336 3.98852539 17.86694336 5.11352539 C15.55694336 5.11352539 13.24694336 5.11352539 10.86694336 5.11352539 C11.19694336 13.03352539 11.52694336 20.95352539 11.86694336 29.11352539 C10.21694336 29.11352539 8.56694336 29.11352539 6.86694336 29.11352539 C4.86694336 27.11352539 4.86694336 27.11352539 4.63989258 24.86694336 C4.65036621 23.9557373 4.66083984 23.04453125 4.67163086 22.10571289 C4.67807617 21.11958008 4.68452148 20.13344727 4.69116211 19.11743164 C4.70791992 18.08489258 4.72467773 17.05235352 4.74194336 15.98852539 C4.7509668 14.94825195 4.75999023 13.90797852 4.76928711 12.83618164 C4.79290589 10.26173447 4.82584187 7.68774327 4.86694336 5.11352539 C1.89694336 5.11352539 -1.07305664 5.11352539 -4.13305664 5.11352539 C-2.89317032 0.15398011 -2.89317032 0.15398011 0 0 Z " fill="#C02228" transform="translate(347.133056640625,423.886474609375)"/>
<path d="M0 0 C0.33 0.99 0.66 1.98 1 3 C0.53851563 3.40089844 0.07703125 3.80179688 -0.3984375 4.21484375 C-5.18369699 8.38539599 -9.90963413 12.61570923 -14.60546875 16.88671875 C-21.5323475 23 -21.5323475 23 -24 23 C-23.8393207 15.8716818 -22.82676487 10.44268018 -18 5 C-12.36511322 0.60478831 -7.02136989 0.25393743 0 0 Z " fill="#20295B" transform="translate(247,164)"/>
<path d="M0 0 C2.02045442 0.60183749 4.02111039 1.27306096 6 2 C7.14645912 4.29291824 7.18203426 5.76450359 7.28125 8.31640625 C7.33732422 9.58581055 7.33732422 9.58581055 7.39453125 10.88085938 C7.46499715 12.67252002 7.53530898 14.46418672 7.60546875 16.25585938 C7.64285156 17.10083984 7.68023437 17.94582031 7.71875 18.81640625 C7.74904297 19.59443604 7.77933594 20.37246582 7.81054688 21.17407227 C7.80798236 23.01810083 7.80798236 23.01810083 9 24 C10.51469448 24.23192865 12.03754562 24.41215238 13.5625 24.5625 C14.38878906 24.64628906 15.21507812 24.73007812 16.06640625 24.81640625 C17.02353516 24.90728516 17.02353516 24.90728516 18 25 C17.125 28.875 17.125 28.875 16 30 C11.33072813 30.51880799 7.31740884 30.96395769 3.4375 28.125 C1.13411474 24.7199957 0.83446755 22.64983354 0.68359375 18.5546875 C0.64169922 17.47832031 0.59980469 16.40195312 0.55664062 15.29296875 C0.51732422 14.16503906 0.47800781 13.03710938 0.4375 11.875 C0.39431641 10.73933594 0.35113281 9.60367187 0.30664062 8.43359375 C0.2003396 5.62252232 0.09830595 2.81136055 0 0 Z " fill="#C02228" transform="translate(293,423)"/>
<path d="M0 0 C1.32 0 2.64 0 4 0 C4.0578304 4.45827926 4.09353855 8.9164628 4.125 13.375 C4.14175781 14.64601563 4.15851563 15.91703125 4.17578125 17.2265625 C4.18222656 18.43828125 4.18867188 19.65 4.1953125 20.8984375 C4.20578613 22.01911621 4.21625977 23.13979492 4.22705078 24.29443359 C4 27 4 27 2 29 C-0.625 29.125 -0.625 29.125 -3 29 C-2.89055285 24.54114074 -2.75982334 20.08315844 -2.625 15.625 C-2.5940625 14.35398437 -2.563125 13.08296875 -2.53125 11.7734375 C-2.49257813 10.56171875 -2.45390625 9.35 -2.4140625 8.1015625 C-2.3826416 6.98088379 -2.3512207 5.86020508 -2.31884766 4.70556641 C-2 2 -2 2 0 0 Z " fill="#C02228" transform="translate(376,424)"/>
<path d="M0 0 C1.32 0 2.64 0 4 0 C4.0578304 4.45827926 4.09353855 8.9164628 4.125 13.375 C4.14175781 14.64601563 4.15851563 15.91703125 4.17578125 17.2265625 C4.18222656 18.43828125 4.18867188 19.65 4.1953125 20.8984375 C4.20578613 22.01911621 4.21625977 23.13979492 4.22705078 24.29443359 C4 27 4 27 2 29 C0.68 29 -0.64 29 -2 29 C-2.0578304 24.54172074 -2.09353855 20.0835372 -2.125 15.625 C-2.14175781 14.35398437 -2.15851563 13.08296875 -2.17578125 11.7734375 C-2.18222656 10.56171875 -2.18867187 9.35 -2.1953125 8.1015625 C-2.21102295 6.42054443 -2.21102295 6.42054443 -2.22705078 4.70556641 C-2 2 -2 2 0 0 Z " fill="#C02228" transform="translate(129,424)"/>
<path d="M0 0 C0.02906612 4.56248659 0.04682113 9.1249493 0.0625 13.6875 C0.07087891 14.98107422 0.07925781 16.27464844 0.08789062 17.60742188 C0.09111328 18.85458984 0.09433594 20.10175781 0.09765625 21.38671875 C0.10289307 22.53358154 0.10812988 23.68044434 0.11352539 24.86206055 C0.01075807 27.70263777 -0.34683584 30.24043792 -1 33 C-1.33 33 -1.66 33 -2 33 C-2.33 23.76 -2.66 14.52 -3 5 C-4.32 6.32 -5.64 7.64 -7 9 C-7.66 8.67 -8.32 8.34 -9 8 C-7.6905332 6.66368764 -6.37734515 5.33102075 -5.0625 4 C-3.96615234 2.88625 -3.96615234 2.88625 -2.84765625 1.75 C-1 0 -1 0 0 0 Z " fill="#D9777B" transform="translate(328,60)"/>
</svg>
